<svg xmlns="http://www.w3.org/2000/svg" viewBox="0 0 280 280"><defs><style>.aaedde35-6037-4a6e-b507-6e9373942cbd,.eb4d257d-110d-4f94-9ccc-ac15b1921a0c{fill:none;}.aaedde35-6037-4a6e-b507-6e9373942cbd{stroke:#f7f4f1;stroke-width:14px;}.eb4d257d-110d-4f94-9ccc-ac15b1921a0c{stroke:#1c1c29;stroke-width:4px;}</style></defs><g id="a8290f2e-0e64-4f17-8396-62d6a4637724" data-name="Large"><path id="b252ce3f-b6c2-4872-a83e-78ba8bc8074a" data-name="track" class="aaedde35-6037-4a6e-b507-6e9373942cbd" d="M179,186.43l-7.47.15-9.91.19-14.47.27-13.81.22-11.82.16c-2.68,0-3,.14-4.27.05s-2.22.41-3.12-.61-1.3-3.86-2.33-5.48a11,11,0,0,0-3.77-4.25A25.63,25.63,0,0,0,99.94,174c-2.67-.44-5.37.33-7.91.48s-4.5.35-7.35.41-6.08.09-9.71-.08-8-.46-12-.93-7.94-1-12.09-1.87-9.9-2.37-12.75-3.11a23.08,23.08,0,0,1-4.38-1.34c-1.16-.53-2.34-.95-2.62-1.83s-.16-1.47,1-3.45,4.67-6.4,5.79-8.45,1.5-2.38.94-3.88-1.58-2.49-4.28-5.1-9.4-8.1-11.88-10.56-2.56-2.24-3-4.2-.14-3.67.43-7.53,1.49-10.69,3-15.64,4.62-10.39,6-14.06S30.93,87,31.57,85s.13-3.36,1.45-4.37,4.46-1.09,6.47-1.68,3.18-.39,5.59-1.86,6.14-5.32,8.89-7a20.64,20.64,0,0,1,7.58-2.92,24.88,24.88,0,0,1,9-.14c3,.59,6.88,2.52,9.24,3.66a34.68,34.68,0,0,1,4.88,3.22,56.68,56.68,0,0,1,5.19,3.42A70.94,70.94,0,0,1,97.64,84a31.85,31.85,0,0,1,4.87,6.91c1.57,2.84,3,6.66,4.6,10.17s3,7.43,5,10.86,3.65,6.46,7.11,9.73,8.55,7.58,13.67,9.94,12.32,3.58,17.15,4.18,8.28-.34,11.8-.6,6.93-.59,9.31-.92,2.94.61,4.94-1,5.49-6.82,7.09-8.78.82-2.3,2.53-2.93,2.06-.4,7.78-.84,20.17-2,26.51-1.81,6.35,1,11.46,3.15,13.82,6.94,19.17,9.86,10.18,5.85,12.91,7.67,3.23,2,3.46,3.26-1,2.43-2,4.4-3.08,5.2-4.36,7.45-2.27,4-3.32,6-1.83,4.39-3.05,6-2.19,3.15-4.31,3.66-5.19.05-8.41-.57-7.95-2.36-10.9-3.12a51.09,51.09,0,0,0-6.77-1.37c-1.66-.16-2.56-.22-3.15.4s-.47,1.43-.41,3.37,1.08,5.76.8,8.24-.77,5.22-2.45,6.63-5.24,1.48-7.63,1.82a54.63,54.63,0,0,1-6.71.19c-2.22.05-3.78,0-6.6.08l-10.26.21-8.41.16"/><path id="a4feaaac-250e-4d16-8453-a49efb59e220" data-name="track" class="eb4d257d-110d-4f94-9ccc-ac15b1921a0c" d="M179,186.43l-7.47.15-9.91.19-1.69,0L149.5,187l-2.36,0-13.81.22-11.82.16c-2.68,0-3,.14-4.27.05s-2.22.41-3.12-.61-1.3-3.86-2.33-5.48a11,11,0,0,0-3.77-4.25A25.63,25.63,0,0,0,99.94,174c-2.67-.44-5.37.33-7.91.48s-4.5.35-7.35.41-6.08.09-9.71-.08-8-.46-12-.93-7.94-1-12.09-1.87-9.9-2.37-12.75-3.11a23.08,23.08,0,0,1-4.38-1.34c-1.16-.53-2.34-.95-2.62-1.83s-.16-1.47,1-3.45,4.67-6.4,5.79-8.45,1.5-2.38.94-3.88-1.58-2.49-4.28-5.1-9.4-8.1-11.88-10.56-2.56-2.24-3-4.2-.14-3.67.43-7.53,1.49-10.69,3-15.64,4.62-10.39,6-14.06S30.93,87,31.57,85s.13-3.36,1.45-4.37,4.46-1.09,6.47-1.68,3.18-.39,5.59-1.86,6.14-5.32,8.89-7a20.64,20.64,0,0,1,7.58-2.92,24.88,24.88,0,0,1,9-.14c3,.59,6.88,2.52,9.24,3.66a34.68,34.68,0,0,1,4.88,3.22,56.68,56.68,0,0,1,5.19,3.42A70.94,70.94,0,0,1,97.64,84a31.85,31.85,0,0,1,4.87,6.91c1.57,2.84,3,6.66,4.6,10.17s3,7.43,5,10.86,3.65,6.46,7.11,9.73,8.55,7.58,13.67,9.94,12.32,3.58,17.15,4.18,8.28-.34,11.8-.6,6.93-.59,9.31-.92,2.94.61,4.94-1,5.49-6.82,7.09-8.78.82-2.3,2.53-2.93,2.06-.4,7.78-.84,20.17-2,26.51-1.81,6.35,1,11.46,3.15,13.82,6.94,19.17,9.86,10.18,5.85,12.91,7.67,3.23,2,3.46,3.26-1,2.43-2,4.4-3.08,5.2-4.36,7.45-2.27,4-3.32,6-1.83,4.39-3.05,6-2.19,3.15-4.31,3.66-5.19.05-8.41-.57-7.95-2.36-10.9-3.12a51.09,51.09,0,0,0-6.77-1.37c-1.66-.16-2.56-.22-3.15.4s-.47,1.43-.41,3.37,1.08,5.76.8,8.24-.77,5.22-2.45,6.63-5.24,1.48-7.63,1.82a54.63,54.63,0,0,1-6.71.19c-2.22.05-3.78,0-6.6.08l-10.26.21-8.41.16"/></g></svg>