<svg xmlns="http://www.w3.org/2000/svg" viewBox="0 0 280 280"><defs><style>.a1531b4d-0d74-472e-891e-0d326e09c693,.b2e41f97-91b9-4828-b796-c2dd15800564{fill:none;}.a1531b4d-0d74-472e-891e-0d326e09c693{stroke:#f7f4f1;stroke-width:14px;}.b2e41f97-91b9-4828-b796-c2dd15800564{stroke:#1c1c29;stroke-width:4px;}</style></defs><g id="b9182773-1309-4876-afc6-bc4ebd5ec9bc" data-name="Large"><path id="bab2780c-58c5-41d0-aee8-f788924878fa" data-name="track" class="a1531b4d-0d74-472e-891e-0d326e09c693" d="M59.78,115.73c-4.66,2.92-9.28,5.84-14.41,9.18S33.3,132.59,29,135.76s-7.22,5.45-9.26,8.2-3.52,5.87-3,8.3,3.9,4.66,6.07,6.24,5,1.86,6.91,3.2,4.27,1.87,4.75,4.89-2,8.25-1.85,13.29.12,11.74,2.49,16.92A39.75,39.75,0,0,0,46.81,211c4.59,3.41,9.35,5.23,15.86,6.19s16-.14,23.19-.41,11.4-.7,20.22-1.19,23.21-1.24,32.77-1.76l24.64-1.38c8.08-.46,16.49-1,23.85-1.34s15-.34,20.28-1,8.94-1.41,11.45-2.81,3.07-3.28,3.6-5.56,0-4.41-.42-8.14-.67-9.7-1.84-14.24-2.68-9.48-5.15-13a27.53,27.53,0,0,0-9.63-8.36c-4.14-2.36-7.43-3.19-15.15-5.79s-22.65-7.09-31.18-9.8-14.66-4.69-20-6.43-8.56-2.13-11.95-4-6.44-4.17-8.36-7.34-2.79-8.1-3.18-11.68a23.49,23.49,0,0,1,.85-9.79,15,15,0,0,1,4.89-7.63c2.93-2.56,8.21-5.28,12.74-7.69S145.19,81.94,148.8,81s5.63-.07,7.11,1.34,1.92,4.25,1.73,7-2.76,6.85-2.82,9.75a12.48,12.48,0,0,0,2.47,7.6,10.2,10.2,0,0,0,6.18,3.46,11.18,11.18,0,0,0,7.37-1.29c2.12-1.37,3.39-3.72,5.3-6.88s3.57-8.32,6.15-12.07a49.91,49.91,0,0,1,9.32-10.44,50.43,50.43,0,0,1,12.26-7.15c3.12-1.11,5.27-.84,6.51.42s2.25,3.18.84,7.16-7.16,12-9.4,16.72-3.86,7.35-4,11.49a31.2,31.2,0,0,0,2.87,13.4,20,20,0,0,0,7.74,8.53c3.51,2.24,8.88,3.51,13.35,4.89s8.7,2.21,13.43,3.36,11,2.92,14.92,3.55,6.65,1,8.64.23,2.65-2.51,3.35-4.93.7-5.46.83-9.6.94-10.58,0-15.24-3.57-8.58-5.81-12.73a91.33,91.33,0,0,0-7.64-12.1,89.25,89.25,0,0,0-10.23-11.39c-3.88-3.61-8.32-8-13-10.26S216.6,63,210.89,62.56s-11.55.16-19,.66S174.22,64.83,166,65.63s-16.59.89-23.31,2.41-10.89,3.65-17,6.74-13.6,8-19.88,11.84S93.42,94.52,88,98s-10,6.43-14.65,9.39-8.91,5.44-13.57,8.36"/><path id="fba13077-ddc2-4e46-b366-aaeeead66a4e" data-name="track" class="b2e41f97-91b9-4828-b796-c2dd15800564" d="M59.78,115.73c-4.66,2.92-9.28,5.84-14.41,9.18S33.3,132.59,29,135.76s-7.22,5.45-9.26,8.2-3.52,5.87-3,8.3,3.9,4.66,6.07,6.24,5,1.86,6.91,3.2,4.27,1.87,4.75,4.89-2,8.25-1.85,13.29.12,11.74,2.49,16.92A39.75,39.75,0,0,0,46.81,211c4.59,3.41,9.35,5.23,15.86,6.19s16-.14,23.19-.41,11.4-.7,20.22-1.19,23.21-1.24,32.77-1.76l24.64-1.38c8.08-.46,16.49-1,23.85-1.34s15-.34,20.28-1,8.94-1.41,11.45-2.81,3.07-3.28,3.6-5.56,0-4.41-.42-8.14-.67-9.7-1.84-14.24-2.68-9.48-5.15-13a27.53,27.53,0,0,0-9.63-8.36c-4.14-2.36-7.43-3.19-15.15-5.79s-22.65-7.09-31.18-9.8-14.66-4.69-20-6.43-8.56-2.13-11.95-4-6.44-4.17-8.36-7.34-2.79-8.1-3.18-11.68a23.49,23.49,0,0,1,.85-9.79,15,15,0,0,1,4.89-7.63c2.93-2.56,8.21-5.28,12.74-7.69S145.19,81.94,148.8,81s5.63-.07,7.11,1.34,1.92,4.25,1.73,7-2.76,6.85-2.82,9.75a12.48,12.48,0,0,0,2.47,7.6,10.2,10.2,0,0,0,6.18,3.46,11.18,11.18,0,0,0,7.37-1.29c2.12-1.37,3.39-3.72,5.3-6.88s3.57-8.32,6.15-12.07a49.91,49.91,0,0,1,9.32-10.44,50.43,50.43,0,0,1,12.26-7.15c3.12-1.11,5.27-.84,6.51.42s2.25,3.18.84,7.16-7.16,12-9.4,16.72-3.86,7.35-4,11.49a31.2,31.2,0,0,0,2.87,13.4,20,20,0,0,0,7.74,8.53c3.51,2.24,8.88,3.51,13.35,4.89s8.7,2.21,13.43,3.36,11,2.92,14.92,3.55,6.65,1,8.64.23,2.65-2.51,3.35-4.93.7-5.46.83-9.6.94-10.58,0-15.24-3.57-8.58-5.81-12.73a91.33,91.33,0,0,0-7.64-12.1,89.25,89.25,0,0,0-10.23-11.39c-3.88-3.61-8.32-8-13-10.26S216.6,63,210.89,62.56s-11.55.16-19,.66S174.22,64.83,166,65.63s-16.59.89-23.31,2.41-10.89,3.65-17,6.74-13.6,8-19.88,11.84S93.42,94.52,88,98s-10,6.43-14.65,9.39-8.91,5.44-13.57,8.36"/></g></svg>