<svg xmlns="http://www.w3.org/2000/svg" viewBox="0 0 280 280"><defs><style>.b9141d5d-7ca0-48f7-a130-31d95e21d4d2,.bc476782-edd5-43dd-bf99-3a32424dd782{fill:none;}.b9141d5d-7ca0-48f7-a130-31d95e21d4d2{stroke:#f7f4f1;stroke-width:14px;}.bc476782-edd5-43dd-bf99-3a32424dd782{stroke:#1c1c29;stroke-width:4px;}</style></defs><g id="a1d24267-8cae-4438-8002-b78ebf949cce" data-name="Large"><path id="b31dfa13-3537-4a67-bb3e-4e484203913f" data-name="track" class="b9141d5d-7ca0-48f7-a130-31d95e21d4d2" d="M152.16,189.32l-8.53-9.53c-2-2.27-2.66-3-3.66-4.12s-1.46-1.61-2.36-2.65a27.37,27.37,0,0,1-3-3.6,7.56,7.56,0,0,1-1.14-3.66,23,23,0,0,1,.43-5.61,50.88,50.88,0,0,1,1.82-6c1-3,3.36-9,4.07-12.25a19.58,19.58,0,0,0,.22-7.47,20.8,20.8,0,0,0-1.75-5.82c-.8-1.94-2-3.93-3-5.83s-1.79-3.39-2.95-5.62-3-5.68-4.06-7.74-2-3.24-2.46-4.69a8.24,8.24,0,0,1-.21-4.09c.27-1,1.11-1.32,1.84-1.67a8.84,8.84,0,0,1,2.51-.42c.89-.12,1.89-.2,2.87-.31l3-.35c1.29-.15,3.53-.39,4.73-.54a11.81,11.81,0,0,0,2.47-.39,4.29,4.29,0,0,0,1.9-1.17,3.11,3.11,0,0,0,.78-2.11,4.1,4.1,0,0,0-1.18-2.39,13.65,13.65,0,0,0-3.29-2.47c-1.89-1.13-5.63-3.27-8-4.36a30.75,30.75,0,0,0-6.37-2.19c-2.11-.49-4.32-1.21-6.29-.71s-3.43,2.15-5.6,3.68-3,2.25-7.37,5.53L88.71,104.9c-5.06,3.8-6.48,4.85-11.55,8.67L58.28,127.76c-4.06,3.07-3.57,2.69-5.49,4.13s-4.35,3.18-6,4.55a23.59,23.59,0,0,0-4.14,3.6,11.73,11.73,0,0,0-2.06,4.39,10.25,10.25,0,0,0-.07,4.44,7.59,7.59,0,0,0,1.78,4c1,1,2.67,1.3,4.49,1.94s4.74,1.23,6.45,1.92A10.68,10.68,0,0,1,57.07,159,7.82,7.82,0,0,1,59,162.51a7.84,7.84,0,0,1-1.6,6.85A6,6,0,0,1,55.5,171a6.18,6.18,0,0,1-2.28,1,9.54,9.54,0,0,1-3.34.07,10.93,10.93,0,0,1-3.05-1.43,36.4,36.4,0,0,1-3-2.23c-1.62-1.21-4.91-3.73-6.61-5s-2.57-1.91-3.62-2.71-1.86-1.36-2.7-2.09a22.89,22.89,0,0,1-2.33-2.3A28.5,28.5,0,0,1,26,153.09a36.65,36.65,0,0,1-3.52-5.59,38,38,0,0,1-3.26-8.8c-.56-3.09-.26-6.17-.12-9.77s.54-6.74,1-11.85,1.13-11.81,1.86-18.81,2-18.56,2.58-23.18.49-3.21.93-4.52a13.21,13.21,0,0,1,1.71-3.31,11.29,11.29,0,0,1,2.28-2.46,11.16,11.16,0,0,1,3.24-2.06,34.94,34.94,0,0,1,5.58-1.4A42.29,42.29,0,0,1,44,60.59c3.14-.25,8-.81,13.08-.77a162.87,162.87,0,0,1,17.23,1c6.68.72,18.41,2.7,22.87,3.33s2.52.43,3.87.47a24,24,0,0,0,4.18-.25,31.75,31.75,0,0,0,4.48-1.06c1.38-.42,2.66-1.1,3.76-1.47a11.68,11.68,0,0,1,2.84-.78,8.33,8.33,0,0,1,3,.21,14.26,14.26,0,0,1,3.18,1.39c1.2.64,2.16,1.39,4,2.49a70.64,70.64,0,0,0,7.26,4.14,19.89,19.89,0,0,0,6.53,1.65,11.46,11.46,0,0,0,5-1c1.75-.63,3.83-2.12,5.44-2.77A12.63,12.63,0,0,1,155.08,66a11.34,11.34,0,0,1,4.27.65,7.33,7.33,0,0,1,3.46,2.11,20.21,20.21,0,0,1,3.41,5.47c1.23,2.65,2.82,8.06,3.92,10.45a10.07,10.07,0,0,0,2.7,3.92c1.36,1.43-.43-.16,5.45,4.67s21.94,17.91,29.81,24.33,12,9.79,17.4,14.2,10.85,8.84,14.81,12.27,6.65,6.12,9,8.39,3.38,3.25,5.1,5.19,4.11,4.3,5.21,6.4a15.15,15.15,0,0,1,1.37,6.16,9.57,9.57,0,0,1-.72,4,11.44,11.44,0,0,1-1.71,3.31,12.36,12.36,0,0,1-2.89,2.94,19.87,19.87,0,0,1-4.4,2.09c-1.55.55-3,.65-4.88,1.18a64.54,64.54,0,0,0-6.45,2,62.27,62.27,0,0,0-8.66,3.81c-3.5,1.92-9.15,5.77-12.37,7.71s-5,2.83-6.93,3.89l-4.43,2.46c-1.09.61-1.6.81-2.15,1.19a3.89,3.89,0,0,0-1.15,1.07,2.18,2.18,0,0,0-.33,1.22,2.94,2.94,0,0,0,.29,1.33,13.92,13.92,0,0,0,1.06,1.78,24,24,0,0,1,1.55,2.32,6.75,6.75,0,0,1,.84,2.68,4.32,4.32,0,0,1-.83,2.56,10.8,10.8,0,0,1-2.61,2.12,28.68,28.68,0,0,1-3.77,2.22,40.79,40.79,0,0,1-4.83,1.84,26.89,26.89,0,0,1-3.82.79,17.25,17.25,0,0,1-3.15.24c-1.22,0-2.68.44-4.14-.32s-2.71-2.24-4.62-4.22-2.95-3.31-6.8-7.64l-16.35-18.34-4.57-5.13"/><path id="a740bf93-9a71-47de-89bf-8dc3dc6bbdec" data-name="track" class="bc476782-edd5-43dd-bf99-3a32424dd782" d="M143.63,179.79c-2-2.27-2.66-3-3.66-4.12s-1.46-1.61-2.36-2.65a27.37,27.37,0,0,1-3-3.6,7.56,7.56,0,0,1-1.14-3.66,23,23,0,0,1,.43-5.61,50.88,50.88,0,0,1,1.82-6c1-3,3.36-9,4.07-12.25a19.58,19.58,0,0,0,.22-7.47,20.8,20.8,0,0,0-1.75-5.82c-.8-1.94-2-3.93-3-5.83s-1.79-3.39-2.95-5.62-3-5.68-4.06-7.74-2-3.24-2.46-4.69a8.24,8.24,0,0,1-.21-4.09c.27-1,1.11-1.32,1.84-1.67a8.84,8.84,0,0,1,2.51-.42c.89-.12,1.89-.2,2.87-.31l3-.35c1.29-.15,3.53-.39,4.73-.54a11.81,11.81,0,0,0,2.47-.39,4.29,4.29,0,0,0,1.9-1.17,3.11,3.11,0,0,0,.78-2.11,4.1,4.1,0,0,0-1.18-2.39,13.65,13.65,0,0,0-3.29-2.47c-1.89-1.13-5.63-3.27-8-4.36a30.75,30.75,0,0,0-6.37-2.19c-2.11-.49-4.32-1.21-6.29-.71s-3.43,2.15-5.6,3.68-3,2.25-7.37,5.53L88.71,104.9c-5.06,3.8-6.48,4.85-11.55,8.67L58.28,127.76c-4.06,3.07-3.57,2.69-5.49,4.13s-4.35,3.18-6,4.55a23.59,23.59,0,0,0-4.14,3.6,11.73,11.73,0,0,0-2.06,4.39,10.25,10.25,0,0,0-.07,4.44,7.59,7.59,0,0,0,1.78,4c1,1,2.67,1.3,4.49,1.94s4.74,1.23,6.45,1.92A10.68,10.68,0,0,1,57.07,159,7.82,7.82,0,0,1,59,162.51a7.84,7.84,0,0,1-1.6,6.85A6,6,0,0,1,55.5,171a6.18,6.18,0,0,1-2.28,1,9.54,9.54,0,0,1-3.34.07,10.93,10.93,0,0,1-3.05-1.43,36.4,36.4,0,0,1-3-2.23c-1.62-1.21-4.91-3.73-6.61-5s-2.57-1.91-3.62-2.71-1.86-1.36-2.7-2.09a22.89,22.89,0,0,1-2.33-2.3A28.5,28.5,0,0,1,26,153.09a36.65,36.65,0,0,1-3.52-5.59,38,38,0,0,1-3.26-8.8c-.56-3.09-.26-6.17-.12-9.77s.54-6.74,1-11.85,1.13-11.81,1.86-18.81,2-18.56,2.58-23.18.49-3.21.93-4.52a13.21,13.21,0,0,1,1.71-3.31,11.29,11.29,0,0,1,2.28-2.46,11.16,11.16,0,0,1,3.24-2.06,34.94,34.94,0,0,1,5.58-1.4A42.29,42.29,0,0,1,44,60.59c3.14-.25,8-.81,13.08-.77a162.87,162.87,0,0,1,17.23,1c6.68.72,18.41,2.7,22.87,3.33s2.52.43,3.87.47a24,24,0,0,0,4.18-.25,31.75,31.75,0,0,0,4.48-1.06c1.38-.42,2.66-1.1,3.76-1.47a11.68,11.68,0,0,1,2.84-.78,8.33,8.33,0,0,1,3,.21,14.26,14.26,0,0,1,3.18,1.39c1.2.64,2.16,1.39,4,2.49a70.64,70.64,0,0,0,7.26,4.14,19.89,19.89,0,0,0,6.53,1.65,11.46,11.46,0,0,0,5-1c1.75-.63,3.83-2.12,5.44-2.77A12.63,12.63,0,0,1,155.08,66a11.34,11.34,0,0,1,4.27.65,7.33,7.33,0,0,1,3.46,2.11,20.21,20.21,0,0,1,3.41,5.47c1.23,2.65,2.82,8.06,3.92,10.45a10.07,10.07,0,0,0,2.7,3.92c1.36,1.43-.43-.16,5.45,4.67s21.94,17.91,29.81,24.33,12,9.79,17.4,14.2,10.85,8.84,14.81,12.27,6.65,6.12,9,8.39,3.38,3.25,5.1,5.19,4.11,4.3,5.21,6.4a15.15,15.15,0,0,1,1.37,6.16,9.57,9.57,0,0,1-.72,4,11.44,11.44,0,0,1-1.71,3.31,12.36,12.36,0,0,1-2.89,2.94,19.87,19.87,0,0,1-4.4,2.09c-1.55.55-3,.65-4.88,1.18a64.54,64.54,0,0,0-6.45,2,62.27,62.27,0,0,0-8.66,3.81c-3.5,1.92-9.15,5.77-12.37,7.71s-5,2.83-6.93,3.89l-4.43,2.46c-1.09.61-1.6.81-2.15,1.19a3.89,3.89,0,0,0-1.15,1.07,2.18,2.18,0,0,0-.33,1.22,2.94,2.94,0,0,0,.29,1.33,13.92,13.92,0,0,0,1.06,1.78,24,24,0,0,1,1.55,2.32,6.75,6.75,0,0,1,.84,2.68,4.32,4.32,0,0,1-.83,2.56,10.8,10.8,0,0,1-2.61,2.12,28.68,28.68,0,0,1-3.77,2.22,40.79,40.79,0,0,1-4.83,1.84,26.89,26.89,0,0,1-3.82.79,17.25,17.25,0,0,1-3.15.24c-1.22,0-2.68.44-4.14-.32s-2.71-2.24-4.62-4.22-2.95-3.31-6.8-7.64l-11.72-13.14-4.63-5.2-4.57-5.13Z"/></g></svg>