<svg xmlns="http://www.w3.org/2000/svg" viewBox="0 0 280 280"><defs><style>.aadfb2c9-f515-428e-acad-04c5183ef2d2,.b9338c35-d0d5-4a33-9f4e-9e446e71f972{fill:none;}.aadfb2c9-f515-428e-acad-04c5183ef2d2{stroke:#f7f4f1;stroke-width:14px;}.b9338c35-d0d5-4a33-9f4e-9e446e71f972{stroke:#1c1c29;stroke-width:4px;}</style></defs><g id="bf04cf5e-d250-482c-a77c-b50b0a9ce650" data-name="Large"><path id="f190771a-b73d-4e67-bed3-84c3bee375c5" data-name="track" class="aadfb2c9-f515-428e-acad-04c5183ef2d2" d="M254.62,143.86c-.77-5.61-2.19-16.29-3.13-23.13s-1.85-13.17-2.5-17.91-1-7.44-1.39-10.49-.71-5.6-1-7.8a51.91,51.91,0,0,0-.83-5.4c-.39-1.47-.17-2.75-1.49-3.4s-4.62-.11-6.43-.54a9.76,9.76,0,0,1-4.37-2C231.83,72,229.75,69,228.11,68s-3.28-1.68-4.47-1-2.14,2.22-2.64,5.38-1.6,7.85-.41,13.63,6,15.74,7.56,21.06A43.68,43.68,0,0,1,230,117.94c.3,3.29.65,6.94-.1,8.93s-2.3,2.41-4.41,3a32.16,32.16,0,0,1-8.26.6c-3.34,0-6.67-.41-11.75-.73l-18.69-1.13c-6.22-.38-13.2-.67-18.7-1.14s-9.78-.32-14.29-1.7-8.74-4.31-12.81-6.54-7.36-4.34-11.66-6.87-10.45-6.17-14.12-8.35-6-3.76-7.9-4.73-2.36-1.4-3.49-1.08-2.07,1.52-3.33,3A67.47,67.47,0,0,0,96.36,107c-1.78,2.62-4.85,7.21-6.46,9.91s-2.27,4.83-3.23,6.28-1.52,2.51-2.49,2.47-1.58-.79-3.41-2.66-5-6.06-7.57-8.56a62.8,62.8,0,0,0-7.72-6.42c-2.06-1.39-2.83-2.43-4.61-2s-4.3,2.65-6.08,4.82-2.29,4-4.65,8.25-6.36,11.53-9.62,17.44-7.57,13.84-10,18-3.49,5.29-4.49,6.89-1.63,1.16-1.53,2.67a14.5,14.5,0,0,0,2.14,6.34,26.41,26.41,0,0,0,6,5.41A27.38,27.38,0,0,0,38,178.39c1.3.58,2,.48,2.39,1s.16.73.32,2.1.4,4.58.58,6.1a14.62,14.62,0,0,0,.53,3c.26.86-.4.65,1,2.08s5.32,4.59,7.61,6.49,4.21,2.81,6.12,5,4.07,6.5,5.37,8,1.7,1.34,2.4,1,1.24-.84,1.83-2.83,1.14-5.94,1.71-9.07.68-4,1.69-9.72,3.3-19.23,4.42-24.72a44.4,44.4,0,0,1,2.32-8.23c1-3.11,2.2-6.2,3.72-10.43s4.11-12.09,5.36-14.95,1.18-2.12,2.1-2.24-.3-1.32,3.4,1.52,13.77,11.67,18.8,15.53,6.3,6,11.37,7.59,13.22,1.5,19.1,2,8.32.59,16.14,1.06,24.3,1.37,30.77,1.74,6.2.19,8,.5,2.34.09,2.95,1.36.27,4.6.77,6.2a5.5,5.5,0,0,0,2.18,3.45,15.92,15.92,0,0,0,5.67,2.29c2.17.45,4.58.26,7.34.41l9.29.5c3.73.21,9.83.55,13.12.75s4.78.37,6.64.42,3.15.57,4.48-.13,2.4-2.53,3.56-4.1a57.72,57.72,0,0,0,3.38-5.29c1-1.66,2.11-2.63,2.38-4.69s-.4-4.63-.78-7.67-.76-5-1.54-10.58"/><path id="b73af68d-a174-4e47-a84d-6f3da4e5a443" data-name="track" class="b9338c35-d0d5-4a33-9f4e-9e446e71f972" d="M254.62,143.86c-.77-5.61-2.19-16.29-3.13-23.13s-1.85-13.17-2.5-17.91-1-7.44-1.39-10.49-.71-5.6-1-7.8a51.91,51.91,0,0,0-.83-5.4c-.39-1.47-.17-2.75-1.49-3.4s-4.62-.11-6.43-.54a9.76,9.76,0,0,1-4.37-2C231.83,72,229.75,69,228.11,68s-3.28-1.68-4.47-1-2.14,2.22-2.64,5.38-1.6,7.85-.41,13.63,6,15.74,7.56,21.06A43.68,43.68,0,0,1,230,117.94c.3,3.29.65,6.94-.1,8.93s-2.3,2.41-4.41,3a32.16,32.16,0,0,1-8.26.6c-3.34,0-6.67-.41-11.75-.73l-18.69-1.13c-6.22-.38-13.2-.67-18.7-1.14s-9.78-.32-14.29-1.7-8.74-4.31-12.81-6.54-7.36-4.34-11.66-6.87-10.45-6.17-14.12-8.35-6-3.76-7.9-4.73-2.36-1.4-3.49-1.08-2.07,1.52-3.33,3A67.47,67.47,0,0,0,96.36,107c-1.78,2.62-4.85,7.21-6.46,9.91s-2.27,4.83-3.23,6.28-1.52,2.51-2.49,2.47-1.58-.79-3.41-2.66-5-6.06-7.57-8.56a62.8,62.8,0,0,0-7.72-6.42c-2.06-1.39-2.83-2.43-4.61-2s-4.3,2.65-6.08,4.82-2.29,4-4.65,8.25-6.36,11.53-9.62,17.44-7.57,13.84-10,18-3.49,5.29-4.49,6.89-1.63,1.16-1.53,2.67a14.5,14.5,0,0,0,2.14,6.34,26.41,26.41,0,0,0,6,5.41A27.38,27.38,0,0,0,38,178.39c1.3.58,2,.48,2.39,1s.16.73.32,2.1.4,4.58.58,6.1a14.62,14.62,0,0,0,.53,3c.26.86-.4.65,1,2.08s5.32,4.59,7.61,6.49,4.21,2.81,6.12,5,4.07,6.5,5.37,8,1.7,1.34,2.4,1,1.24-.84,1.83-2.83,1.14-5.94,1.71-9.07.68-4,1.69-9.72,3.3-19.23,4.42-24.72a44.4,44.4,0,0,1,2.32-8.23c1-3.11,2.2-6.2,3.72-10.43s4.11-12.09,5.36-14.95,1.18-2.12,2.1-2.24-.3-1.32,3.4,1.52,13.77,11.67,18.8,15.53,6.3,6,11.37,7.59,13.22,1.5,19.1,2,8.32.59,16.14,1.06,24.3,1.37,30.77,1.74,6.2.19,8,.5,2.34.09,2.95,1.36.27,4.6.77,6.2a5.5,5.5,0,0,0,2.18,3.45,15.92,15.92,0,0,0,5.67,2.29c2.17.45,4.58.26,7.34.41l9.29.5c3.73.21,9.83.55,13.12.75s4.78.37,6.64.42,3.15.57,4.48-.13,2.4-2.53,3.56-4.1a57.72,57.72,0,0,0,3.38-5.29c1-1.66,2.11-2.63,2.38-4.69s-.4-4.63-.78-7.67-.76-5-1.54-10.58"/></g></svg>