<svg xmlns="http://www.w3.org/2000/svg" viewBox="0 0 280 280"><defs><style>.a8b1244e-789b-435c-afa8-366ebfff6a9b,.b3c66f05-2ae9-48de-af9e-7870ef5dbb16{fill:none;}.a8b1244e-789b-435c-afa8-366ebfff6a9b{stroke:#f7f4f1;stroke-width:14px;}.b3c66f05-2ae9-48de-af9e-7870ef5dbb16{stroke:#1c1c29;stroke-width:4px;}</style></defs><g id="a3ede515-1e7f-4497-9302-35249626f925" data-name="Large"><path id="e1547d0c-2ae4-4936-ad55-823ef3ec2470" data-name="track" class="a8b1244e-789b-435c-afa8-366ebfff6a9b" d="M205.12,174.31l-17.88.38-19.9.44-22.65.5-29.41.67c-9.56.22-20.2.47-27.95.63l-18.53.41c-5.09.11-8.71.83-12,.27s-6.31-1.7-7.84-3.64-.8-5.47-1.35-8-.65-5.12-2-7-2.8-2.79-6.07-4.39-10-3.39-13.59-5.24a23.39,23.39,0,0,1-7.83-5.84A20,20,0,0,1,14,135.24a20.52,20.52,0,0,1,0-9.45,20.87,20.87,0,0,1,4.86-9.6,45.94,45.94,0,0,1,12.38-9c4.41-2.13,8.14-3,14.11-3.76s14-.5,21.72-.67,19.44-1,24.74-.31,5.61,3,7.05,4.48,1.33,2.76,1.55,4.22.69,2.39-.24,4.58-2.72,6.35-5.28,8.58a25.15,25.15,0,0,1-10.07,4.8c-3.68.92-6,.49-12.08.69s-19.56-.36-24.58.54-5,2.92-5.52,4.84.62,4.71,2.27,6.67,4.46,3,7.68,5.12,8.08,5.29,11.63,7.34a58.49,58.49,0,0,0,9.68,5,43.4,43.4,0,0,0,10.79,2.37,122,122,0,0,0,13.61.14c3.71-.09,6.43.07,8.59-.67a7.37,7.37,0,0,0,4.35-3.83c.84-1.71.49-4.14.73-6.42s-.19-4.66.7-7.32,2.87-5.61,4.69-8.63,4.1-6.28,6.2-9.43,4.52-6.79,6.38-9.44,2.85-4.75,4.77-6.49a16.24,16.24,0,0,1,6.82-3.9,22.14,22.14,0,0,1,9.07-.09c2.81.57,3.8,1.42,7.81,3.54s10,5.6,16.26,9.18,15.32,8.82,21.43,12.3,8.67,5,15.21,8.57,19,11.33,24.05,13,5-1.45,6.1-3.09,1-4.24.57-6.77-.94-5.82-3.24-8.43-7.5-5.51-10.56-7.24-5.81-1.47-7.78-3.18a11.93,11.93,0,0,1-4-7c-.26-2.56,1.36-6.44,2.46-8.33a6,6,0,0,1,4.15-3,13.28,13.28,0,0,1,6.94-.33c3.26.59,8.63,2.63,12.67,3.87s8.81,2.55,11.54,3.53,3.16.88,4.87,2.34,4.29,3.92,5.45,6.39,1.19,5.72,1.46,8.42.15,5.88.17,7.77-.05,2,0,3.6.16,3.19.17,6.16.63,8.21-.07,11.67-1.55,6.59-4.06,9.06-4.77,4.65-11,5.72-19.14.5-26.55.66-14.69.28-17.93.34,1.7,0-1.52,0"/><path id="ea4f2b6a-aa1e-4069-820b-a9bda70bf102" data-name="track" class="b3c66f05-2ae9-48de-af9e-7870ef5dbb16" d="M205.12,174.31l-17.88.38-19.9.44-22.65.5-29.41.67c-9.56.22-20.2.47-27.95.63l-18.53.41c-5.09.11-8.71.83-12,.27s-6.31-1.7-7.84-3.64-.8-5.47-1.35-8-.65-5.12-2-7-2.8-2.79-6.07-4.39-10-3.39-13.59-5.24a23.39,23.39,0,0,1-7.83-5.84A20,20,0,0,1,14,135.24a20.52,20.52,0,0,1,0-9.45,20.87,20.87,0,0,1,4.86-9.6,45.94,45.94,0,0,1,12.38-9c4.41-2.13,8.14-3,14.11-3.76s14-.5,21.72-.67,19.44-1,24.74-.31,5.61,3,7.05,4.48,1.33,2.76,1.55,4.22.69,2.39-.24,4.58-2.72,6.35-5.28,8.58a25.15,25.15,0,0,1-10.07,4.8c-3.68.92-6,.49-12.08.69s-19.56-.36-24.58.54-5,2.92-5.52,4.84.62,4.71,2.27,6.67,4.46,3,7.68,5.12,8.08,5.29,11.63,7.34a58.49,58.49,0,0,0,9.68,5,43.4,43.4,0,0,0,10.79,2.37,122,122,0,0,0,13.61.14c3.71-.09,6.43.07,8.59-.67a7.37,7.37,0,0,0,4.35-3.83c.84-1.71.49-4.14.73-6.42s-.19-4.66.7-7.32,2.87-5.61,4.69-8.63,4.1-6.28,6.2-9.43,4.52-6.79,6.38-9.44,2.85-4.75,4.77-6.49a16.24,16.24,0,0,1,6.82-3.9,22.14,22.14,0,0,1,9.07-.09c2.81.57,3.8,1.42,7.81,3.54s10,5.6,16.26,9.18,15.32,8.82,21.43,12.3,8.67,5,15.21,8.57,19,11.33,24.05,13,5-1.45,6.1-3.09,1-4.24.57-6.77-.94-5.82-3.24-8.43-7.5-5.51-10.56-7.24-5.81-1.47-7.78-3.18a11.93,11.93,0,0,1-4-7c-.26-2.56,1.36-6.44,2.46-8.33a6,6,0,0,1,4.15-3,13.28,13.28,0,0,1,6.94-.33c3.26.59,8.63,2.63,12.67,3.87s8.81,2.55,11.54,3.53,3.16.88,4.87,2.34,4.29,3.92,5.45,6.39,1.19,5.72,1.46,8.42.15,5.88.17,7.77-.05,2,0,3.6.16,3.19.17,6.16.63,8.21-.07,11.67-1.55,6.59-4.06,9.06-4.77,4.65-11,5.72-19.14.5-26.55.66-14.69.28-17.93.34,1.7,0-1.52,0"/></g></svg>