<?xml version="1.0" encoding="UTF-8"?>
<svg width="288" height="66" viewBox="0 0 288 66" fill="none" xmlns="http://www.w3.org/2000/svg">
<path fill-rule="evenodd" clip-rule="evenodd" d="M242.176 0.40387L216.757 25.8227H105.697C81.1475 25.8227 76.713 28.3489 67.9186 37.1365L39.2809 65.5977H0.544922L43.4574 22.6852C63.1853 2.95729 72.6995 0.40387 111.435 0.40387H242.176ZM70.0917 38.5287C78.3632 30.1757 82.3631 28.0841 108.305 28.0841H214.408L189.688 53.3263H102.471C95.7686 53.3263 93.6837 54.019 91.1575 56.5453L82.105 65.5977H43.2808L70.0917 38.5287ZM222.217 65.5977L287.411 0.403888H245.164L180.731 65.5977H222.217ZM237.3 64.416C238.081 65.2038 239.059 65.5977 240.234 65.5977C241.409 65.5977 242.38 65.2038 243.141 64.4228C243.901 63.6419 244.281 62.6775 244.281 61.5299C244.281 60.3822 243.894 59.4179 243.127 58.6301C242.36 57.8423 241.388 57.4485 240.214 57.4485C239.039 57.4485 238.068 57.8423 237.293 58.6233C236.519 59.4043 236.132 60.3686 236.132 61.5163C236.132 62.664 236.519 63.6283 237.3 64.416ZM237.796 59.0919C238.441 58.4264 239.249 58.0936 240.214 58.0936C241.178 58.0936 241.986 58.4264 242.631 59.0919C243.276 59.7574 243.602 60.5655 243.602 61.5231C243.602 62.4806 243.283 63.2887 242.631 63.9475C241.986 64.6062 241.178 64.939 240.214 64.939C239.249 64.939 238.448 64.6062 237.796 63.9407C237.144 63.2752 236.818 62.467 236.818 61.5163C236.818 60.5655 237.144 59.7574 237.796 59.0919ZM239.419 63.7913V62.1954H239.426H240.336L241.11 63.7913H242.054L241.205 62.0731C241.49 61.9441 241.701 61.7743 241.816 61.557C241.932 61.3397 241.993 61.0137 241.993 60.5791C241.993 60.1445 241.843 59.8117 241.551 59.5944C241.253 59.3771 240.818 59.2685 240.227 59.2685H238.523V63.7913H239.419ZM239.405 61.4959V59.9747H240.146C240.784 59.9747 241.103 60.226 241.103 60.7353C241.103 61.007 241.042 61.1971 240.92 61.3193C240.798 61.4348 240.594 61.4959 240.315 61.4959H239.405Z" fill="#E10600"/>
</svg>